<?xml version="1.0" encoding="UTF-8"?>
<svg width="30px" height="22px" viewBox="0 0 30 22" version="1.1" xmlns="http://www.w3.org/2000/svg" xmlns:xlink="http://www.w3.org/1999/xlink">
    <title>01.CL-PRIMITIVES/01.icons/C.CHECKOUT/02.Categories/Contact us</title>
    <g id="Symbols" stroke="none" stroke-width="1" fill="none" fill-rule="evenodd">
        <g id="Group-3-Copy-4" transform="translate(-28.000000, -639.000000)">
            <g id="Group" transform="translate(0.000000, 546.000000)">
                <g transform="translate(25.931034, 88.000000)" id="01.CL-PRIMITIVES/01.icons/A.FINANCE/02.Currency/01.Coins/Bill">
                    <rect id="Path" opacity="0" fill-rule="nonzero" x="0" y="0" width="34.5747126" height="32"></rect>
                    <path d="M7.95312585,5.82239964 L17.2852261,8.324 L26.4676743,6.04627236 C27.2445564,5.85356261 28.0430948,6.28036937 28.2512597,6.99957192 L29.5882261,11.62 L30.4598372,11.8530548 C31.2367193,12.0612197 31.7102846,12.8129996 31.5175748,13.5322021 L30.8562261,15.999 L31.6435032,18.7196547 C31.8516682,19.4388572 31.3906318,20.1781082 30.6137497,20.3708179 L29.6182261,20.617 L28.3771881,25.2522849 C28.1844784,25.9714874 27.3984689,26.3857653 26.6215868,26.1776004 L17.2862261,23.676 L8.10703834,25.9537276 C7.33015625,26.1464374 6.53161786,25.7196306 6.32345294,25.0004281 L4.98522605,20.379 L4.11487543,20.1469452 C3.33799334,19.9387803 2.86442808,19.1870004 3.05713782,18.4677979 L3.71722605,15.999 L2.93120942,13.2803453 C2.72304449,12.5611428 3.18408085,11.8218918 3.96096294,11.6291821 L4.95522605,11.382 L6.19752453,6.74771511 C6.39023428,6.02851256 7.17624376,5.61423471 7.95312585,5.82239964 Z M8.23883656,8.13211948 L5.51716807,18.2895245 L26.3358761,23.8678805 L29.0575446,13.7104755 L8.23883656,8.13211948 Z M7.59922605,21.08 L8.34656783,23.6611472 L12.9602261,22.516 L7.59922605,21.08 Z M22.9140342,17.3957274 C23.1221991,16.6765249 23.9207375,16.2497181 24.6976196,16.4424279 C25.4745017,16.6351376 25.935538,17.3743886 25.7273731,18.0935911 C25.5192082,18.8127937 24.7206698,19.2396004 23.9437877,19.0468907 C23.1669056,18.854181 22.7058692,18.11493 22.9140342,17.3957274 Z M17.98522,13.3955372 C19.5389842,13.811867 20.4861147,15.3154268 20.1006952,16.7538319 C19.7152758,18.192237 18.1432568,19.0207927 16.5894926,18.6044628 C15.0357284,18.188133 14.0885979,16.6845732 14.4740174,15.2461681 C14.8594369,13.807763 16.4314559,12.9792073 17.98522,13.3955372 Z M15.8806869,15.6230841 C15.6879771,16.3422866 16.1615424,17.0940665 16.9384245,17.3022314 C17.7153066,17.5103963 18.501316,17.0961185 18.6940258,16.3769159 C18.8867355,15.6577134 18.4131703,14.9059335 17.6362882,14.6977686 C16.8594061,14.4896037 16.0733966,14.9038815 15.8806869,15.6230841 Z M8.84733956,13.9064089 C9.05550449,13.1872063 9.85404287,12.7603996 10.630925,12.9531093 C11.4078071,13.145819 11.8688434,13.88507 11.6606785,14.6042726 C11.4525136,15.3234751 10.6539752,15.7502819 9.87709307,15.5575721 C9.10021098,15.3648624 8.63917463,14.6256114 8.84733956,13.9064089 Z M26.2253315,8.33955067 L21.6122261,9.483 L26.9722261,10.919 L26.2253315,8.33955067 Z" id="🎨-COLOR" fill="#053840"></path>
                </g>
            </g>
        </g>
    </g>
</svg>